<?xml version="1.0" encoding="utf-8"?>
<!-- Generator: Adobe Illustrator 28.0.0, SVG Export Plug-In . SVG Version: 6.00 Build 0)  -->
<svg version="1.1" id="Layer_1" xmlns="http://www.w3.org/2000/svg" xmlns:xlink="http://www.w3.org/1999/xlink" x="0px" y="0px"
	 viewBox="0 0 124.6 26.1" style="enable-background:new 0 0 124.6 26.1;" xml:space="preserve">
<style type="text/css">
	.st0{fill:#FFFFFF;}
	.st1{fill:#B6B9BA;}
	
		.st2{clip-path:url(#SVGID_00000090985335196422474400000012462355440981384126_);fill:url(#SVGID_00000183219025420202907810000015096415481167867326_);}
	
		.st3{clip-path:url(#SVGID_00000170273543590775654900000000488656310973815438_);fill:url(#SVGID_00000050652136765298066310000017228393873971784064_);}
	.st4{fill:#C9C7C7;}
	.st5{fill:#0080C2;}
</style>
<g>
	<path class="st0" d="M43.44,19.21h-2.1l-0.19-1.37c-0.86,1.21-2.32,1.63-3.48,1.63c-3.78,0-6.22-2.88-6.22-6.5
		c0-3.62,2.44-6.5,6.22-6.5c2.59,0,5.35,1.38,5.64,4.5h-3.25c-0.11-1.07-1.15-1.71-2.46-1.71c-2.1,0-2.9,1.85-2.9,3.7
		c0,1.85,0.8,3.7,2.9,3.7c1.6,0,2.69-0.75,2.86-1.89H38.2v-2.41h5.24V19.21"/>
	<polyline class="st0" points="48.58,6.74 58.52,6.74 58.52,9.34 51.83,9.34 51.83,11.52 57.94,11.52 57.94,14.04 51.83,14.04 
		51.83,16.42 58.69,16.42 58.69,19.21 48.58,19.21 48.58,6.74 	"/>
	<polyline class="st0" points="63.62,6.74 68.41,6.74 70.55,15.05 70.59,15.05 72.74,6.74 77.52,6.74 77.52,19.21 74.47,19.21 
		74.47,9.74 74.43,9.74 71.81,19.21 69.33,19.21 66.71,9.74 66.67,9.74 66.67,19.21 63.62,19.21 63.62,6.74 	"/>
	<path class="st0" d="M85.37,15.02c0.07,1.47,0.98,1.94,2.36,1.94c0.98,0,1.99-0.35,1.99-1.28c0-1.1-1.78-1.31-3.58-1.82
		c-1.78-0.51-3.65-1.31-3.65-3.6c0-2.73,2.74-3.79,5.09-3.79c2.48,0,4.97,1.21,5,4.02h-3.25c0.05-1.14-1.02-1.5-2.01-1.5
		c-0.7,0-1.57,0.24-1.57,1.07c0,0.96,1.8,1.13,3.61,1.64c1.8,0.51,3.62,1.35,3.62,3.6c0,3.16-2.69,4.18-5.43,4.18
		c-2.86,0-5.39-1.26-5.41-4.45H85.37"/>
	<polyline class="st0" points="97.54,6.74 107.48,6.74 107.48,9.34 100.79,9.34 100.79,11.52 106.9,11.52 106.9,14.04 100.79,14.04 
		100.79,16.42 107.65,16.42 107.65,19.21 97.54,19.21 97.54,6.74 	"/>
	<polyline class="st0" points="112.53,6.74 115.86,6.74 120.2,14.42 120.23,14.42 120.23,6.74 123.28,6.74 123.28,19.21 
		119.95,19.21 115.62,11.44 115.58,11.44 115.58,19.21 112.53,19.21 112.53,6.74 	"/>
	<path class="st1" d="M24.79,13.05c0,6.48-5.25,11.73-11.73,11.73c-6.48,0-11.74-5.25-11.74-11.73c0-6.48,5.25-11.74,11.74-11.74
		C19.53,1.32,24.79,6.57,24.79,13.05"/>
	<g>
		<defs>
			<path id="SVGID_1_" d="M23.84,13.05c0,5.96-4.83,10.79-10.79,10.79c-5.96,0-10.79-4.83-10.79-10.79
				c0-5.96,4.83-10.79,10.79-10.79C19.01,2.26,23.84,7.09,23.84,13.05"/>
		</defs>
		<clipPath id="SVGID_00000134241449607025928410000016341108156402529977_">
			<use xlink:href="#SVGID_1_"  style="overflow:visible;"/>
		</clipPath>
		
			<linearGradient id="SVGID_00000021799858101935307430000018029371490248597912_" gradientUnits="userSpaceOnUse" x1="-337.8196" y1="321.7311" x2="-337.4521" y2="321.7311" gradientTransform="matrix(41.473 -41.473 41.473 41.473 672.6615 -27332.8672)">
			<stop  offset="0" style="stop-color:#818181"/>
			<stop  offset="0.011" style="stop-color:#818181"/>
			<stop  offset="0.0941" style="stop-color:#A4A3A3"/>
			<stop  offset="0.177" style="stop-color:#C6C4C4"/>
			<stop  offset="0.2536" style="stop-color:#E2E0E0"/>
			<stop  offset="0.3215" style="stop-color:#F5F4F4"/>
			<stop  offset="0.3736" style="stop-color:#FFFFFF"/>
			<stop  offset="0.4106" style="stop-color:#BBB7B8"/>
			<stop  offset="0.4483" style="stop-color:#908B8C"/>
			<stop  offset="0.4877" style="stop-color:#716D6E"/>
			<stop  offset="0.5283" style="stop-color:#5C595A"/>
			<stop  offset="0.5708" style="stop-color:#4F4C4E"/>
			<stop  offset="0.6163" style="stop-color:#474547"/>
			<stop  offset="0.6703" style="stop-color:#444345"/>
			<stop  offset="1" style="stop-color:#CED0CF"/>
		</linearGradient>
		
			<polygon style="clip-path:url(#SVGID_00000134241449607025928410000016341108156402529977_);fill:url(#SVGID_00000021799858101935307430000018029371490248597912_);" points="
			13.05,34.63 34.63,13.05 13.05,-8.52 -8.52,13.05 		"/>
	</g>
	<g>
		<defs>
			<path id="SVGID_00000026162680502213761130000005255258016304667040_" d="M23.47,13.05c0,5.75-4.66,10.41-10.41,10.41
				c-5.75,0-10.41-4.66-10.41-10.41C2.64,7.3,7.3,2.64,13.05,2.64C18.8,2.64,23.47,7.3,23.47,13.05"/>
		</defs>
		<clipPath id="SVGID_00000162345634874651679250000017130435628162958753_">
			<use xlink:href="#SVGID_00000026162680502213761130000005255258016304667040_"  style="overflow:visible;"/>
		</clipPath>
		
			<radialGradient id="SVGID_00000051342102647118485570000004480341137379063980_" cx="-335.9897" cy="323.3643" r="0.3675" gradientTransform="matrix(27.79 0 0 27.79 9342.667 -8980.7148)" gradientUnits="userSpaceOnUse">
			<stop  offset="0" style="stop-color:#8E9092"/>
			<stop  offset="0.131" style="stop-color:#787778"/>
			<stop  offset="0.3455" style="stop-color:#585656"/>
			<stop  offset="0.5469" style="stop-color:#413E3E"/>
			<stop  offset="0.7293" style="stop-color:#322E2E"/>
			<stop  offset="0.8864" style="stop-color:#282324"/>
			<stop  offset="1" style="stop-color:#241F20"/>
		</radialGradient>
		
			<rect x="2.64" y="2.64" style="clip-path:url(#SVGID_00000162345634874651679250000017130435628162958753_);fill:url(#SVGID_00000051342102647118485570000004480341137379063980_);" width="20.83" height="20.83"/>
	</g>
	<rect x="4.11" y="13.01" class="st0" width="2.02" height="0.09"/>
	<path class="st4" d="M6.16,13.14H4.07v-0.16h2.09V13.14z M4.14,13.07h1.95v-0.02H4.14V13.07z"/>
	<rect x="12.98" y="4.1" class="st0" width="0.09" height="2.02"/>
	<path class="st4" d="M13.11,6.15h-0.16V4.06h0.16V6.15z M13.02,6.08h0.02V4.13h-0.02V6.08z"/>
	<polyline class="st0" points="8.17,8.13 6.74,6.7 6.68,6.77 8.11,8.2 8.17,8.13 	"/>
	<path class="st4" d="M8.1,8.24L6.63,6.77l0.12-0.12l1.48,1.48L8.1,8.24 M6.73,6.77L8.1,8.15l0.02-0.02L6.74,6.75L6.73,6.77z"/>
	<polyline class="st0" points="17.97,8.16 19.39,6.73 19.33,6.67 17.9,8.1 17.97,8.16 	"/>
	<path class="st4" d="M17.97,8.21L17.85,8.1l1.48-1.48l0.11,0.12L17.97,8.21 M17.95,8.1l0.02,0.02l1.38-1.38l-0.02-0.02L17.95,8.1z"
		/>
	<polyline class="st0" points="17.93,17.96 19.36,19.38 19.43,19.32 18,17.89 17.93,17.96 	"/>
	<path class="st4" d="M19.36,19.43l-1.48-1.48L18,17.84l1.48,1.48L19.36,19.43 M17.98,17.96l1.38,1.38l0.02-0.02L18,17.94
		L17.98,17.96z"/>
	<polyline class="st0" points="10.4,6.65 9.62,4.78 9.53,4.82 10.31,6.68 10.4,6.65 	"/>
	<path class="st4" d="M10.29,6.73L9.48,4.8l0.15-0.06l0.81,1.93L10.29,6.73 M9.58,4.84l0.75,1.8l0.02-0.01L9.6,4.83L9.58,4.84z"/>
	<polyline class="st0" points="6.65,10.4 4.78,9.63 4.75,9.72 6.62,10.48 6.65,10.4 	"/>
	<path class="st4" d="M6.63,10.53L4.7,9.74l0.06-0.15l1.93,0.79L6.63,10.53 M4.79,9.7l1.81,0.74l0.01-0.02L4.8,9.68L4.79,9.7z"/>
	<polyline class="st0" points="6.66,15.7 4.79,16.48 4.83,16.57 6.69,15.79 6.66,15.7 	"/>
	<path class="st4" d="M4.81,16.61l-0.06-0.15l1.93-0.81l0.06,0.15L4.81,16.61 M4.84,16.5l0.01,0.02l1.8-0.75l-0.01-0.02L4.84,16.5z"
		/>
	<polyline class="st0" points="15.7,6.64 16.46,4.77 16.37,4.74 15.61,6.61 15.7,6.64 	"/>
	<path class="st4" d="M15.72,6.69l-0.15-0.06l0.79-1.93l0.15,0.06L15.72,6.69 M15.66,6.59l0.02,0.01l0.74-1.8l-0.02-0.01L15.66,6.59
		z"/>
	<polyline class="st0" points="19.45,10.39 21.31,9.61 21.27,9.52 19.41,10.3 19.45,10.39 	"/>
	<path class="st4" d="M19.43,10.43l-0.06-0.15l1.93-0.81l0.06,0.15L19.43,10.43 M19.46,10.32l0.01,0.02l1.8-0.75l-0.01-0.02
		L19.46,10.32z"/>
	<polyline class="st0" points="19.45,15.69 21.32,16.45 21.36,16.37 19.49,15.6 19.45,15.69 	"/>
	<path class="st4" d="M21.34,16.5l-1.93-0.79l0.06-0.15l1.93,0.79L21.34,16.5 M19.5,15.67l1.81,0.74l0.01-0.02l-1.81-0.74
		L19.5,15.67z"/>
	<polyline class="st0" points="8.15,17.93 6.72,19.36 6.79,19.43 8.21,18 8.15,17.93 	"/>
	<path class="st4" d="M6.79,19.48l-0.12-0.11l1.47-1.48L8.26,18L6.79,19.48 M6.77,19.36l0.02,0.02L8.17,18l-0.02-0.02L6.77,19.36z"
		/>
	<line class="st0" x1="8.25" y1="8.73" x2="8.25" y2="8.73"/>
	<path class="st5" d="M13.38,18.32c-2.95,0-5.35-2.4-5.35-5.35c0-2.95,2.4-5.35,5.35-5.35c1.79,0,3.46,0.89,4.45,2.38
		c0.17,0.26,0.1,0.61-0.16,0.78c-0.26,0.17-0.61,0.1-0.78-0.16c-0.79-1.18-2.1-1.88-3.51-1.88c-2.33,0-4.22,1.89-4.22,4.22
		c0,2.33,1.9,4.22,4.22,4.22c1.41,0,2.73-0.7,3.51-1.88c0.17-0.26,0.52-0.33,0.78-0.16c0.26,0.17,0.33,0.52,0.16,0.78
		C16.84,17.43,15.18,18.32,13.38,18.32"/>
	<path class="st5" d="M20.59,12.94c-0.02-0.1-0.1-0.18-0.2-0.2l-5.98-0.93c-0.07-0.01-0.14,0.01-0.19,0.06
		c-0.05,0.05-0.08,0.12-0.08,0.19l0.06,2.12c0,0.07,0.03,0.14,0.09,0.18c0.04,0.04,0.1,0.05,0.15,0.05c0.02,0,0.03,0,0.05-0.01
		l5.92-1.15c0.13-0.02,0.21-0.14,0.19-0.27L20.59,12.94"/>
</g>
</svg>
